<svg width="35" height="36" viewBox="0 0 35 36" fill="none" xmlns="http://www.w3.org/2000/svg">
<g id="Group 5 Copy">
<path id="Oval" fill-rule="evenodd" clip-rule="evenodd" d="M29.5227 10.479C32.1885 10.479 34.3496 8.31788 34.3496 5.65207C34.3496 2.98626 32.1885 0.825195 29.5227 0.825195C26.8569 0.825195 24.6958 2.98626 24.6958 5.65207C24.6958 8.31788 26.8569 10.479 29.5227 10.479Z" fill="#8D8BA7"/>
<path id="Oval Copy" fill-rule="evenodd" clip-rule="evenodd" d="M29.5227 22.6017C32.1885 22.6017 34.3496 20.4407 34.3496 17.775C34.3496 15.1092 32.1885 12.9482 29.5227 12.9482C26.8569 12.9482 24.6958 15.1092 24.6958 17.775C24.6958 20.4407 26.8569 22.6017 29.5227 22.6017Z" fill="#8D8BA7"/>
<path id="Oval Copy 2" fill-rule="evenodd" clip-rule="evenodd" d="M29.5227 35.1743C32.1885 35.1743 34.3496 33.0132 34.3496 30.3474C34.3496 27.6816 32.1885 25.5205 29.5227 25.5205C26.8569 25.5205 24.6958 27.6816 24.6958 30.3474C24.6958 33.0132 26.8569 35.1743 29.5227 35.1743Z" fill="#8D8BA7"/>
<path id="Oval Copy_2" fill-rule="evenodd" clip-rule="evenodd" d="M16.9508 22.6017C19.6165 22.6017 21.7775 20.4407 21.7775 17.775C21.7775 15.1092 19.6165 12.9482 16.9508 12.9482C14.285 12.9482 12.124 15.1092 12.124 17.775C12.124 20.4407 14.285 22.6017 16.9508 22.6017Z" fill="#8D8BA7"/>
<path id="Oval Copy 2_2" fill-rule="evenodd" clip-rule="evenodd" d="M16.9503 35.1743C19.616 35.1743 21.777 33.0132 21.777 30.3474C21.777 27.6816 19.616 25.5205 16.9503 25.5205C14.2845 25.5205 12.1235 27.6816 12.1235 30.3474C12.1235 33.0132 14.2845 35.1743 16.9503 35.1743Z" fill="#8D8BA7"/>
<g id="Group 3 Copy 2">
<path id="Oval Copy 2_3" fill-rule="evenodd" clip-rule="evenodd" d="M4.82688 35.1743C7.49269 35.1743 9.65376 33.0132 9.65376 30.3474C9.65376 27.6816 7.49269 25.5205 4.82688 25.5205C2.16107 25.5205 0 27.6816 0 30.3474C0 33.0132 2.16107 35.1743 4.82688 35.1743Z" fill="#8D8BA7"/>
</g>
</g>
</svg>
