<svg width="26" height="25" viewBox="0 0 26 25" fill="none" xmlns="http://www.w3.org/2000/svg">
<g id="instagram">
<path id="Vector" d="M12.8025 6.88452C9.69702 6.88452 7.19214 9.3894 7.19214 12.4949C7.19214 15.6003 9.69702 18.1052 12.8025 18.1052C15.908 18.1052 18.4128 15.6003 18.4128 12.4949C18.4128 9.3894 15.908 6.88452 12.8025 6.88452ZM12.8025 16.1423C10.7957 16.1423 9.15503 14.5066 9.15503 12.4949C9.15503 10.4832 10.7908 8.84741 12.8025 8.84741C14.8142 8.84741 16.45 10.4832 16.45 12.4949C16.45 14.5066 14.8093 16.1423 12.8025 16.1423ZM19.9509 6.65503C19.9509 7.38257 19.365 7.96362 18.6423 7.96362C17.9148 7.96362 17.3337 7.37769 17.3337 6.65503C17.3337 5.93237 17.9197 5.34644 18.6423 5.34644C19.365 5.34644 19.9509 5.93237 19.9509 6.65503ZM23.6667 7.98315C23.5837 6.23022 23.1833 4.67749 21.8992 3.39819C20.6199 2.1189 19.0671 1.71851 17.3142 1.63062C15.5076 1.52808 10.0925 1.52808 8.28589 1.63062C6.53784 1.71362 4.98511 2.11401 3.70093 3.39331C2.41675 4.67261 2.02124 6.22534 1.93335 7.97827C1.83081 9.78491 1.83081 15.2 1.93335 17.0066C2.01636 18.7595 2.41675 20.3123 3.70093 21.5916C4.98511 22.8708 6.53296 23.2712 8.28589 23.3591C10.0925 23.4617 15.5076 23.4617 17.3142 23.3591C19.0671 23.2761 20.6199 22.8757 21.8992 21.5916C23.1785 20.3123 23.5789 18.7595 23.6667 17.0066C23.7693 15.2 23.7693 9.78979 23.6667 7.98315ZM21.3328 18.9451C20.9519 19.9021 20.2146 20.6394 19.2527 21.0251C17.8123 21.5964 14.3943 21.4646 12.8025 21.4646C11.2107 21.4646 7.78784 21.5916 6.35229 21.0251C5.39526 20.6443 4.65796 19.907 4.27222 18.9451C3.70093 17.5046 3.83276 14.0867 3.83276 12.4949C3.83276 10.9031 3.70581 7.48022 4.27222 6.04468C4.65308 5.08765 5.39038 4.35034 6.35229 3.9646C7.79272 3.39331 11.2107 3.52515 12.8025 3.52515C14.3943 3.52515 17.8171 3.39819 19.2527 3.9646C20.2097 4.34546 20.947 5.08276 21.3328 6.04468C21.9041 7.48511 21.7722 10.9031 21.7722 12.4949C21.7722 14.0867 21.9041 17.5095 21.3328 18.9451Z" fill="#372121"/>
</g>
</svg>
