<svg width="15" height="16" viewBox="0 0 15 16" fill="none" xmlns="http://www.w3.org/2000/svg">
<g id="Social Icons" clip-path="url(#clip0_344_12519)">
<path id="Vector" d="M7.5 1.39561C9.50391 1.39561 9.74121 1.40469 10.5293 1.44102C11.2617 1.47432 11.6572 1.60146 11.9209 1.70742C12.2695 1.84668 12.5215 2.01621 12.7822 2.28564C13.0459 2.55811 13.207 2.81543 13.3418 3.17568C13.4443 3.44814 13.5674 3.85986 13.5996 4.61367C13.6348 5.43105 13.6436 5.67627 13.6436 7.74395C13.6436 9.81465 13.6348 10.0599 13.5996 10.8742C13.5674 11.6311 13.4443 12.0397 13.3418 12.3122C13.207 12.6725 13.043 12.9328 12.7822 13.2022C12.5186 13.4747 12.2695 13.6412 11.9209 13.7805C11.6572 13.8864 11.2588 14.0136 10.5293 14.0469C9.73828 14.0832 9.50098 14.0923 7.5 14.0923C5.49609 14.0923 5.25879 14.0832 4.4707 14.0469C3.73828 14.0136 3.34277 13.8864 3.0791 13.7805C2.73047 13.6412 2.47852 13.4717 2.21777 13.2022C1.9541 12.9298 1.79297 12.6725 1.6582 12.3122C1.55566 12.0397 1.43262 11.628 1.40039 10.8742C1.36523 10.0568 1.35645 9.81162 1.35645 7.74395C1.35645 5.67324 1.36523 5.42803 1.40039 4.61367C1.43262 3.85684 1.55566 3.44814 1.6582 3.17568C1.79297 2.81543 1.95703 2.55508 2.21777 2.28564C2.48145 2.01318 2.73047 1.84668 3.0791 1.70742C3.34277 1.60146 3.74121 1.47432 4.4707 1.44102C5.25879 1.40469 5.49609 1.39561 7.5 1.39561ZM7.5 0C5.46387 0 5.20898 0.00908203 4.40918 0.0454102C3.6123 0.0817383 3.06445 0.214941 2.58984 0.405664C2.09473 0.605469 1.67578 0.868848 1.25977 1.30176C0.84082 1.73164 0.585938 2.16455 0.392578 2.67314C0.208008 3.1666 0.0791016 3.72969 0.0439453 4.55312C0.00878906 5.38262 0 5.646 0 7.75C0 9.854 0.00878906 10.1174 0.0439453 10.9438C0.0791016 11.7673 0.208008 12.3334 0.392578 12.8238C0.585938 13.3354 0.84082 13.7684 1.25977 14.1982C1.67578 14.6281 2.09473 14.8945 2.58691 15.0913C3.06445 15.282 3.60938 15.4152 4.40625 15.4516C5.20605 15.4879 5.46094 15.497 7.49707 15.497C9.5332 15.497 9.78809 15.4879 10.5879 15.4516C11.3848 15.4152 11.9326 15.282 12.4072 15.0913C12.8994 14.8945 13.3184 14.6281 13.7344 14.1982C14.1504 13.7684 14.4082 13.3355 14.5986 12.8269C14.7832 12.3334 14.9121 11.7703 14.9473 10.9469C14.9824 10.1204 14.9912 9.85703 14.9912 7.75303C14.9912 5.64902 14.9824 5.38564 14.9473 4.55918C14.9121 3.73574 14.7832 3.16963 14.5986 2.6792C14.4141 2.16455 14.1592 1.73164 13.7402 1.30176C13.3242 0.871875 12.9053 0.605469 12.4131 0.408691C11.9355 0.217969 11.3906 0.0847656 10.5938 0.0484375C9.79102 0.00908203 9.53613 0 7.5 0Z" fill="black"/>
<path id="Vector_2" d="M7.5 3.76855C5.37305 3.76855 3.64746 5.55166 3.64746 7.74951C3.64746 9.94736 5.37305 11.7305 7.5 11.7305C9.62695 11.7305 11.3525 9.94736 11.3525 7.74951C11.3525 5.55166 9.62695 3.76855 7.5 3.76855ZM7.5 10.3318C6.12012 10.3318 5.00098 9.17539 5.00098 7.74951C5.00098 6.32363 6.12012 5.16719 7.5 5.16719C8.87988 5.16719 9.99902 6.32363 9.99902 7.74951C9.99902 9.17539 8.87988 10.3318 7.5 10.3318Z" fill="black"/>
<path id="Vector_3" d="M12.4043 3.61201C12.4043 4.12666 12 4.54141 11.5049 4.54141C11.0068 4.54141 10.6055 4.12363 10.6055 3.61201C10.6055 3.09736 11.0098 2.68262 11.5049 2.68262C12 2.68262 12.4043 3.10039 12.4043 3.61201Z" fill="black"/>
</g>
<defs>
<clipPath id="clip0_344_12519">
<rect width="15" height="15.5" fill="white"/>
</clipPath>
</defs>
</svg>
