<svg width="15" height="15" viewBox="0 0 15 15" fill="none" xmlns="http://www.w3.org/2000/svg">
<g id="Social Icons" clip-path="url(#clip0_344_12520)">
<rect width="15" height="14.5161" transform="translate(0 0.492188)" fill="white"/>
<path id="Vector" d="M13.8896 0.492188H1.10742C0.495117 0.492188 0 0.959993 0 1.53837V13.9593C0 14.5377 0.495117 15.0083 1.10742 15.0083H13.8896C14.502 15.0083 15 14.5377 15 13.9621V1.53837C15 0.959993 14.502 0.492188 13.8896 0.492188ZM4.4502 12.8621H2.22363V5.9329H4.4502V12.8621ZM3.33691 4.98879C2.62207 4.98879 2.04492 4.43025 2.04492 3.74131C2.04492 3.05236 2.62207 2.49383 3.33691 2.49383C4.04883 2.49383 4.62598 3.05236 4.62598 3.74131C4.62598 4.42742 4.04883 4.98879 3.33691 4.98879ZM12.7822 12.8621H10.5586V9.49389C10.5586 8.69153 10.5439 7.65669 9.40137 7.65669C8.24414 7.65669 8.06836 8.53276 8.06836 9.43719V12.8621H5.84766V5.9329H7.98047V6.87985H8.00977C8.30566 6.3355 9.03223 5.75995 10.1133 5.75995C12.3662 5.75995 12.7822 7.19456 12.7822 9.06011V12.8621Z" fill="black"/>
</g>
<defs>
<clipPath id="clip0_344_12520">
<rect width="15" height="14.5161" fill="white" transform="translate(0 0.492188)"/>
</clipPath>
</defs>
</svg>
