<svg width="26" height="25" viewBox="0 0 26 25" fill="none" xmlns="http://www.w3.org/2000/svg">
<g id="youtube" clip-path="url(#clip0_344_12144)">
<path id="Vector" d="M24.1537 6.77427C23.8811 5.7478 23.0779 4.93938 22.0581 4.66503C20.2095 4.1665 12.7972 4.1665 12.7972 4.1665C12.7972 4.1665 5.38485 4.1665 3.53628 4.66503C2.51645 4.93942 1.71324 5.7478 1.44062 6.77427C0.945312 8.63482 0.945312 12.5167 0.945312 12.5167C0.945312 12.5167 0.945312 16.3985 1.44062 18.2591C1.71324 19.2856 2.51645 20.0603 3.53628 20.3346C5.38485 20.8332 12.7972 20.8332 12.7972 20.8332C12.7972 20.8332 20.2095 20.8332 22.0581 20.3346C23.0779 20.0603 23.8811 19.2856 24.1537 18.2591C24.649 16.3985 24.649 12.5167 24.649 12.5167C24.649 12.5167 24.649 8.63482 24.1537 6.77427ZM10.3729 16.0411V8.99224L16.5682 12.5168L10.3729 16.0411Z" fill="#372121"/>
</g>
<defs>
<clipPath id="clip0_344_12144">
<rect width="25" height="25" fill="white" transform="translate(0.297363)"/>
</clipPath>
</defs>
</svg>
