<svg width="14" height="14" viewBox="0 0 14 14" fill="none" xmlns="http://www.w3.org/2000/svg">
<path id="Star 5" d="M6.15148 1.42705C6.45083 0.505742 7.75424 0.505741 8.0536 1.42705L8.89865 4.02786C9.03253 4.43989 9.41648 4.71885 9.84971 4.71885H12.5844C13.5531 4.71885 13.9559 5.95846 13.1721 6.52786L10.9598 8.13525C10.6093 8.3899 10.4626 8.84127 10.5965 9.25329L11.4416 11.8541C11.7409 12.7754 10.6864 13.5415 9.90271 12.9721L7.69032 11.3647C7.33984 11.1101 6.86524 11.1101 6.51475 11.3647L4.30237 12.9721C3.51866 13.5415 2.46418 12.7754 2.76353 11.8541L3.60858 9.25329C3.74246 8.84127 3.5958 8.3899 3.24531 8.13525L1.03293 6.52787C0.249217 5.95846 0.651991 4.71885 1.62071 4.71885H4.35537C4.7886 4.71885 5.17255 4.43989 5.30643 4.02786L6.15148 1.42705Z" fill="#EEB854"/>
</svg>
