<svg width="26" height="25" viewBox="0 0 26 25" fill="none" xmlns="http://www.w3.org/2000/svg">
<g id="discord">
<path id="Vector" d="M16.3724 11.875C16.3724 12.6375 15.8099 13.2625 15.0974 13.2625C14.3974 13.2625 13.8224 12.6375 13.8224 11.875C13.8224 11.1125 14.3849 10.4875 15.0974 10.4875C15.8099 10.4875 16.3724 11.1125 16.3724 11.875ZM10.5349 10.4875C9.82236 10.4875 9.25986 11.1125 9.25986 11.875C9.25986 12.6375 9.83486 13.2625 10.5349 13.2625C11.2474 13.2625 11.8099 12.6375 11.8099 11.875C11.8224 11.1125 11.2474 10.4875 10.5349 10.4875ZM23.7349 2.575V25C20.5857 22.2171 21.5929 23.1383 17.9349 19.7375L18.5974 22.05H4.42236C3.00986 22.05 1.85986 20.9 1.85986 19.475V2.575C1.85986 1.15 3.00986 0 4.42236 0H21.1724C22.5849 0 23.7349 1.15 23.7349 2.575ZM20.1724 14.425C20.1724 10.4 18.3724 7.1375 18.3724 7.1375C16.5724 5.7875 14.8599 5.825 14.8599 5.825L14.6849 6.025C16.8099 6.675 17.7974 7.6125 17.7974 7.6125C14.8281 5.98511 11.3401 5.98481 8.45986 7.25C7.99736 7.4625 7.72236 7.6125 7.72236 7.6125C7.72236 7.6125 8.75986 6.625 11.0099 5.975L10.8849 5.825C10.8849 5.825 9.17236 5.7875 7.37236 7.1375C7.37236 7.1375 5.57236 10.4 5.57236 14.425C5.57236 14.425 6.62236 16.2375 9.38486 16.325C9.38486 16.325 9.84736 15.7625 10.2224 15.2875C8.63486 14.8125 8.03486 13.8125 8.03486 13.8125C8.21875 13.9412 8.52197 14.1081 8.54736 14.125C10.6572 15.3065 13.6542 15.6937 16.3474 14.5625C16.7849 14.4 17.2724 14.1625 17.7849 13.825C17.7849 13.825 17.1599 14.85 15.5224 15.3125C15.8974 15.7875 16.3474 16.325 16.3474 16.325C19.1099 16.2375 20.1724 14.425 20.1724 14.425Z" fill="#372121"/>
</g>
</svg>
