<svg width="24" height="24" viewBox="0 0 24 24" fill="none" xmlns="http://www.w3.org/2000/svg">
<g id="bi:image-fill" clip-path="url(#clip0_344_18848)">
<path id="Vector" d="M0.00247192 4.50098C0.00247192 3.70533 0.318542 2.94227 0.881152 2.37966C1.44376 1.81705 2.20682 1.50098 3.00247 1.50098H21.0025C21.7981 1.50098 22.5612 1.81705 23.1238 2.37966C23.6864 2.94227 24.0025 3.70533 24.0025 4.50098V19.501C24.0025 20.2966 23.6864 21.0597 23.1238 21.6223C22.5612 22.1849 21.7981 22.501 21.0025 22.501H3.00247C2.20682 22.501 1.44376 22.1849 0.881152 21.6223C0.318542 21.0597 0.00247192 20.2966 0.00247192 19.501V4.50098ZM1.50247 18.001V19.501C1.50247 19.8988 1.66051 20.2803 1.94181 20.5616C2.22312 20.8429 2.60465 21.001 3.00247 21.001H21.0025C21.4003 21.001 21.7818 20.8429 22.0631 20.5616C22.3444 20.2803 22.5025 19.8988 22.5025 19.501V14.251L16.837 11.3305C16.6963 11.26 16.537 11.2356 16.3817 11.2606C16.2264 11.2856 16.0829 11.3589 15.9715 11.47L10.4065 17.035L6.41647 14.377C6.27241 14.2811 6.09961 14.2379 5.92738 14.2549C5.75514 14.2718 5.59407 14.3478 5.47147 14.47L1.50247 18.001ZM9.00247 8.25098C9.00247 7.65424 8.76542 7.08194 8.34346 6.65999C7.92151 6.23803 7.34921 6.00098 6.75247 6.00098C6.15574 6.00098 5.58344 6.23803 5.16148 6.65999C4.73952 7.08194 4.50247 7.65424 4.50247 8.25098C4.50247 8.84771 4.73952 9.42001 5.16148 9.84197C5.58344 10.2639 6.15574 10.501 6.75247 10.501C7.34921 10.501 7.92151 10.2639 8.34346 9.84197C8.76542 9.42001 9.00247 8.84771 9.00247 8.25098Z" fill="white"/>
</g>
<defs>
<clipPath id="clip0_344_18848">
<rect width="24" height="24" fill="white" transform="translate(-0.000854492 0.000488281)"/>
</clipPath>
</defs>
</svg>
