<svg width="24" height="24" viewBox="0 0 24 24" fill="none" xmlns="http://www.w3.org/2000/svg">
<g id="bi:volume-down-fill">
<path id="Vector" d="M13.4987 6.0004C13.4985 5.85927 13.4584 5.72106 13.3832 5.60166C13.308 5.48226 13.2006 5.3865 13.0734 5.3254C12.9462 5.2643 12.8043 5.24033 12.6641 5.25625C12.5238 5.27217 12.3909 5.32733 12.2807 5.4154L8.73616 8.2504H5.24866C5.04974 8.2504 4.85898 8.32942 4.71833 8.47007C4.57767 8.61072 4.49866 8.80148 4.49866 9.0004V15.0004C4.49866 15.1993 4.57767 15.3901 4.71833 15.5307C4.85898 15.6714 5.04974 15.7504 5.24866 15.7504H8.73616L12.2807 18.5854C12.3909 18.6735 12.5238 18.7286 12.6641 18.7445C12.8043 18.7605 12.9462 18.7365 13.0734 18.6754C13.2006 18.6143 13.308 18.5185 13.3832 18.3991C13.4584 18.2797 13.4985 18.1415 13.4987 18.0004V6.0004ZM18.0362 12.0004C18.0373 12.887 17.8632 13.7651 17.524 14.5842C17.1847 15.4033 16.6869 16.1473 16.0592 16.7734L14.9987 15.7129C15.4869 15.2259 15.8741 14.6472 16.1379 14.0101C16.4018 13.373 16.5371 12.69 16.5362 12.0004C16.537 11.3108 16.4016 10.6279 16.1378 9.99075C15.8739 9.35365 15.4868 8.77495 14.9987 8.2879L16.0592 7.2274C16.6869 7.85351 17.1847 8.5975 17.524 9.41661C17.8632 10.2357 18.0373 11.1138 18.0362 12.0004Z" fill="white"/>
</g>
</svg>
