<svg width="24" height="24" viewBox="0 0 24 24" fill="none" xmlns="http://www.w3.org/2000/svg">
<g id="fluent:mic-16-filled">
<path id="Vector" d="M11.9991 2.99951C11.0045 2.99951 10.0507 3.3946 9.34743 4.09786C8.64417 4.80112 8.24908 5.75495 8.24908 6.74951V11.9995C8.24908 12.9941 8.64417 13.9479 9.34743 14.6512C10.0507 15.3544 11.0045 15.7495 11.9991 15.7495C12.9936 15.7495 13.9475 15.3544 14.6507 14.6512C15.354 13.9479 15.7491 12.9941 15.7491 11.9995V6.74951C15.7491 5.75495 15.354 4.80112 14.6507 4.09786C13.9475 3.3946 12.9936 2.99951 11.9991 2.99951ZM5.99908 11.2495C6.198 11.2495 6.38876 11.3285 6.52941 11.4692C6.67007 11.6098 6.74908 11.8006 6.74908 11.9995C6.74908 13.3919 7.30221 14.7273 8.28677 15.7118C9.27134 16.6964 10.6067 17.2495 11.9991 17.2495C13.3915 17.2495 14.7268 16.6964 15.7114 15.7118C16.696 14.7273 17.2491 13.3919 17.2491 11.9995C17.2491 11.8006 17.3281 11.6098 17.4688 11.4692C17.6094 11.3285 17.8002 11.2495 17.9991 11.2495C18.198 11.2495 18.3888 11.3285 18.5294 11.4692C18.6701 11.6098 18.7491 11.8006 18.7491 11.9995C18.7494 13.6601 18.1376 15.2625 17.0307 16.5003C15.9237 17.7381 14.3994 18.5245 12.7491 18.709V20.2495C12.7491 20.4484 12.6701 20.6392 12.5294 20.7798C12.3888 20.9205 12.198 20.9995 11.9991 20.9995C11.8002 20.9995 11.6094 20.9205 11.4688 20.7798C11.3281 20.6392 11.2491 20.4484 11.2491 20.2495V18.709C9.5988 18.5245 8.07443 17.7381 6.9675 16.5003C5.86057 15.2625 5.24877 13.6601 5.24908 11.9995C5.24908 11.8006 5.3281 11.6098 5.46875 11.4692C5.60941 11.3285 5.80017 11.2495 5.99908 11.2495Z" fill="white"/>
</g>
</svg>
