<svg width="53" height="53" viewBox="0 0 53 53" fill="none" xmlns="http://www.w3.org/2000/svg">
<g id="fluent:call-24-filled" clip-path="url(#clip0_344_18816)">
<path id="Vector" d="M43.4639 35.9802L43.0822 37.7349C42.7235 39.3798 41.1495 40.4498 39.4047 40.2354L35.9294 39.8074C34.4165 39.6205 33.1515 38.5083 32.8027 37.0587L31.8336 33.021C30.2594 32.3268 28.5138 31.9835 26.5977 31.9895C24.7525 31.9805 22.9242 32.3417 21.2211 33.052L20.4584 36.7893C20.1683 38.204 18.9656 39.235 17.4762 39.3443L14.0045 39.6031C12.2712 39.7312 10.6442 38.5881 10.1961 36.9289L9.71523 35.1517C9.23748 33.3817 9.75298 31.5446 11.0699 30.3318C14.179 27.4646 19.2698 26.1215 26.3454 26.2969C33.4317 26.473 38.6061 28.0783 41.8625 31.1111C43.233 32.3869 43.8433 34.2389 43.4639 35.9802Z" fill="white"/>
</g>
<defs>
<clipPath id="clip0_344_18816">
<rect width="38.1506" height="38.1506" fill="white" transform="translate(52.9985 19.0752) rotate(120)"/>
</clipPath>
</defs>
</svg>
