<svg width="16" height="8" viewBox="0 0 16 8" fill="none" xmlns="http://www.w3.org/2000/svg">
<g id="Group">
<path id="Vector" d="M10.9746 0.256798C10.8299 0.110551 10.6332 0.027595 10.4275 0.0259014C10.2218 0.0243386 10.0239 0.1043 9.87698 0.248333L4.13974 5.91823L1.64585 3.33645C1.5026 3.18721 1.30596 3.10113 1.09916 3.09722C0.892362 3.09332 0.692601 3.17197 0.543877 3.31562C0.395157 3.45939 0.309857 3.65644 0.30673 3.86324C0.303603 4.07004 0.382915 4.26957 0.527208 4.41776L3.56805 7.56902C3.71352 7.71748 3.91251 7.80148 4.12034 7.80239H4.12894C4.33288 7.80174 4.52833 7.721 4.67342 7.57749L10.9674 1.35417V1.3543C11.1135 1.20935 11.1962 1.01258 11.1975 0.806948C11.1988 0.601186 11.1186 0.403385 10.9744 0.256595L10.9746 0.256798Z" fill="white"/>
<path id="Vector_2" d="M8.2357 7.56973C8.38078 7.7178 8.57912 7.8018 8.78645 7.8031H8.79505C8.99899 7.80245 9.19458 7.72171 9.33953 7.5782L15.6335 1.35488V1.35501C15.8099 1.15642 15.8728 0.881638 15.8004 0.626131C15.7279 0.370751 15.5301 0.169792 15.2758 0.0934803C15.0215 0.0170349 14.7458 0.0756388 14.5446 0.248845L8.80998 5.91907L8.60539 5.70667H8.60526C8.46214 5.55743 8.26537 5.47135 8.05858 5.46744C7.8519 5.46353 7.65201 5.54206 7.50329 5.68583C7.3547 5.82961 7.26927 6.02665 7.26614 6.23345C7.26302 6.44026 7.34246 6.63978 7.48675 6.78784L8.2357 7.56973Z" fill="white"/>
</g>
</svg>
