<svg width="49" height="43" viewBox="0 0 49 43" fill="none" xmlns="http://www.w3.org/2000/svg">
<g id="Group 37">
<g id="Group 7">
<rect id="Rectangle 7" x="12.7316" width="2.31496" height="42.0551" rx="1.15748" fill="black"/>
<rect id="Rectangle 16" x="8.48779" y="6.94434" width="2.31496" height="28.1654" rx="1.15748" fill="black"/>
<rect id="Rectangle 17" x="4.24341" y="14.2749" width="2.31496" height="13.5039" rx="1.15748" fill="white" fill-opacity="0.34"/>
<rect id="Rectangle 18" x="-0.000488281" y="14.2749" width="2.31496" height="13.5039" rx="1.15748" fill="white" fill-opacity="0.34"/>
<rect id="Rectangle 8" x="16.9761" y="4.24365" width="2.31496" height="33.5669" rx="1.15748" fill="black"/>
<rect id="Rectangle 9" x="21.2198" y="10.418" width="2.31496" height="21.2205" rx="1.15748" fill="black"/>
<rect id="Rectangle 10" x="25.4642" y="6.94434" width="2.31496" height="28.1654" rx="1.15748" fill="black"/>
<rect id="Rectangle 11" x="29.708" y="14.2749" width="2.31496" height="13.5039" rx="1.15748" fill="black"/>
<rect id="Rectangle 12" x="33.9525" y="6.94434" width="2.31496" height="28.1654" rx="1.15748" fill="black"/>
<rect id="Rectangle 13" x="38.1963" y="16.5903" width="2.31496" height="8.87402" rx="1.15748" fill="black"/>
<rect id="Rectangle 14" x="42.4401" y="10.418" width="2.31496" height="21.2205" rx="1.15748" fill="white" fill-opacity="0.34"/>
<rect id="Rectangle 15" x="46.6844" y="14.2749" width="2.31496" height="13.5039" rx="1.15748" fill="white" fill-opacity="0.34"/>
</g>
</g>
</svg>
