<svg width="22" height="22" viewBox="0 0 22 22" fill="none" xmlns="http://www.w3.org/2000/svg">
<g id="Group 42">
<g id="Group 34">
<circle id="Ellipse 17" cx="11.0002" cy="11.0005" r="11" fill="#01CE22"/>
</g>
<g id="Group 7">
<rect id="Rectangle 7" x="7.6377" y="5.00098" width="0.661417" height="12.0157" rx="0.330709" fill="white"/>
<rect id="Rectangle 16" x="6.42471" y="6.98535" width="0.661417" height="8.04724" rx="0.330709" fill="white"/>
<rect id="Rectangle 17" x="5.2124" y="9.07959" width="0.661417" height="3.85827" rx="0.330709" fill="white"/>
<rect id="Rectangle 18" x="3.99942" y="9.07959" width="0.661417" height="3.85827" rx="0.330709" fill="white"/>
<rect id="Rectangle 8" x="8.85001" y="6.21338" width="0.661417" height="9.59055" rx="0.330709" fill="white"/>
<rect id="Rectangle 9" x="10.0623" y="7.97705" width="0.661417" height="6.06299" rx="0.330709" fill="white"/>
<rect id="Rectangle 10" x="11.2753" y="6.98535" width="0.661417" height="8.04724" rx="0.330709" fill="white"/>
<rect id="Rectangle 11" x="12.4876" y="9.07959" width="0.661417" height="3.85827" rx="0.330709" fill="white"/>
<rect id="Rectangle 12" x="13.7006" y="6.98535" width="0.661417" height="8.04724" rx="0.330709" fill="white"/>
<rect id="Rectangle 13" x="14.9129" y="9.74072" width="0.661417" height="2.53543" rx="0.330709" fill="white"/>
<rect id="Rectangle 14" x="16.1259" y="7.97705" width="0.661417" height="6.06299" rx="0.330709" fill="white"/>
<rect id="Rectangle 15" x="17.3383" y="9.07959" width="0.661417" height="3.85827" rx="0.330709" fill="white"/>
</g>
</g>
</svg>
