<svg width="20" height="20" viewBox="0 0 20 20" fill="none" xmlns="http://www.w3.org/2000/svg">
<g id="settings_FILL1_wght400_GRAD0_opsz48">
<path id="Vector" d="M11.3746 18.3332H8.62459C8.47181 18.3332 8.3364 18.2846 8.21834 18.1873C8.10029 18.0901 8.02737 17.9651 7.99959 17.8123L7.66626 15.7082C7.40237 15.6109 7.12459 15.479 6.83293 15.3123C6.54126 15.1457 6.28432 14.9721 6.06209 14.7915L4.12459 15.6873C3.97182 15.7568 3.81904 15.7672 3.66626 15.7186C3.51348 15.67 3.39543 15.5693 3.31209 15.4165L1.93709 12.979C1.85376 12.8401 1.83293 12.6943 1.87459 12.5415C1.91626 12.3887 1.99959 12.2637 2.12459 12.1665L3.91626 10.854C3.88848 10.729 3.87112 10.5866 3.86418 10.4269C3.85723 10.2672 3.85376 10.1248 3.85376 9.99984C3.85376 9.87484 3.85723 9.73248 3.86418 9.57275C3.87112 9.41303 3.88848 9.27067 3.91626 9.14567L2.12459 7.83317C1.99959 7.73595 1.91626 7.61095 1.87459 7.45817C1.83293 7.30539 1.85376 7.15956 1.93709 7.02067L3.31209 4.58317C3.39543 4.43039 3.51348 4.3297 3.66626 4.28109C3.81904 4.23248 3.97182 4.24289 4.12459 4.31234L6.06209 5.20817C6.28432 5.02761 6.54126 4.854 6.83293 4.68734C7.12459 4.52067 7.40237 4.39567 7.66626 4.31234L7.99959 2.18734C8.02737 2.03456 8.10029 1.90956 8.21834 1.81234C8.3364 1.71511 8.47181 1.6665 8.62459 1.6665H11.3746C11.5274 1.6665 11.6628 1.71511 11.7808 1.81234C11.8989 1.90956 11.9718 2.03456 11.9996 2.18734L12.3329 4.2915C12.5968 4.38873 12.8781 4.5172 13.1767 4.67692C13.4753 4.83664 13.7288 5.01373 13.9371 5.20817L15.8746 4.31234C16.0274 4.24289 16.1801 4.23248 16.3329 4.28109C16.4857 4.3297 16.6038 4.43039 16.6871 4.58317L18.0621 6.99984C18.1454 7.13873 18.1697 7.28803 18.135 7.44775C18.1003 7.60748 18.0135 7.73595 17.8746 7.83317L16.0829 9.104C16.1107 9.24289 16.1281 9.3922 16.135 9.55192C16.142 9.71164 16.1454 9.86095 16.1454 9.99984C16.1454 10.1387 16.142 10.2846 16.135 10.4373C16.1281 10.5901 16.1107 10.7359 16.0829 10.8748L17.8746 12.1665C17.9996 12.2637 18.0829 12.3887 18.1246 12.5415C18.1663 12.6943 18.1454 12.8401 18.0621 12.979L16.6871 15.4165C16.6038 15.5693 16.4857 15.67 16.3329 15.7186C16.1801 15.7672 16.0274 15.7568 15.8746 15.6873L13.9371 14.7915C13.7149 14.9721 13.4614 15.1491 13.1767 15.3228C12.892 15.4964 12.6107 15.6248 12.3329 15.7082L11.9996 17.8123C11.9718 17.9651 11.8989 18.0901 11.7808 18.1873C11.6628 18.2846 11.5274 18.3332 11.3746 18.3332ZM9.99959 12.7082C10.7496 12.7082 11.3885 12.4443 11.9163 11.9165C12.444 11.3887 12.7079 10.7498 12.7079 9.99984C12.7079 9.24984 12.444 8.61095 11.9163 8.08317C11.3885 7.55539 10.7496 7.2915 9.99959 7.2915C9.24959 7.2915 8.6107 7.55539 8.08293 8.08317C7.55515 8.61095 7.29126 9.24984 7.29126 9.99984C7.29126 10.7498 7.55515 11.3887 8.08293 11.9165C8.6107 12.4443 9.24959 12.7082 9.99959 12.7082Z" fill="white"/>
</g>
</svg>
